<svg width="19" height="19" viewBox="0 0 19 19" fill="none" xmlns="http://www.w3.org/2000/svg">
<path d="M9.47198 0.332031C4.41166 0.332031 0.308594 4.4351 0.308594 9.49542C0.308594 14.5557 4.41166 18.6588 9.47198 18.6588C14.5323 18.6588 18.6354 14.5557 18.6354 9.49542C18.6354 4.4351 14.5323 0.332031 9.47198 0.332031ZM13.0821 12.3119L12.4971 13.1096C12.4844 13.127 12.4684 13.1417 12.45 13.1528C12.4315 13.164 12.4111 13.1714 12.3898 13.1746C12.3685 13.1779 12.3468 13.1769 12.3259 13.1717C12.305 13.1665 12.2853 13.1572 12.268 13.1444L8.88495 10.6777C8.86387 10.6625 8.84674 10.6425 8.835 10.6194C8.82325 10.5963 8.81723 10.5707 8.81745 10.5447V4.91372C8.81745 4.82373 8.89109 4.75009 8.98108 4.75009H9.96492C10.0549 4.75009 10.1286 4.82373 10.1286 4.91372V9.97609L13.0453 12.0849C13.1189 12.136 13.1353 12.2383 13.0821 12.3119Z" fill="#F24942"/>
</svg>
