<svg width="46" height="46" viewBox="0 0 46 46" fill="none" xmlns="http://www.w3.org/2000/svg">
<path d="M20.24 7.12858V5.45721C20.24 4.44103 19.4163 3.61719 18.4 3.61719H1.84003C0.823749 3.61719 0 4.44094 0 5.45721V16.2868H46V10.1953C46 9.17911 45.1763 8.35527 44.16 8.35527H21.4667C20.7892 8.35527 20.24 7.80607 20.24 7.12858Z" fill="#F6C358"/>
<path d="M43.5466 42.3826H2.45337C1.0984 42.3826 0 41.2842 0 39.9293V15.8494H20.3087C20.8261 15.8494 21.3197 15.6315 21.6684 15.2491L23.9289 12.7697C24.2775 12.3873 24.7711 12.1694 25.2886 12.1694H46V39.9293C46 41.2842 44.9016 42.3826 43.5466 42.3826Z" fill="#FCD462"/>
</svg>
