<?xml version="1.0" encoding="UTF-8" standalone="no"?>
<!-- Created with Inkscape (http://www.inkscape.org/) -->

<svg
   xmlns:dc="http://purl.org/dc/elements/1.1/"
   xmlns:cc="http://creativecommons.org/ns#"
   xmlns:rdf="http://www.w3.org/1999/02/22-rdf-syntax-ns#"
   xmlns:svg="http://www.w3.org/2000/svg"
   xmlns="http://www.w3.org/2000/svg"
   version="1.1"
   width="400"
   height="180"
   viewBox="0 0 112.88889 50.8"
   id="svg2"
   xml:space="preserve"
   style="fill-rule:evenodd"><metadata
   id="metadata18"><rdf:RDF><cc:Work
       rdf:about=""><dc:format>image/svg+xml</dc:format><dc:type
         rdf:resource="http://purl.org/dc/dcmitype/StillImage" /><dc:title></dc:title></cc:Work></rdf:RDF></metadata>
 <defs
   id="defs4"><style
     type="text/css"
     id="style6" /></defs>
 
<path
   d="m 25.543529,6.6100378 c 11.2173,0 20.314213,9.0969152 20.314213,20.3142152 0,1.30398 -0.123615,2.578997 -0.358516,3.814623 l -5.964775,0 c 0.330849,-1.215567 0.507631,-2.494412 0.507631,-3.814623 0,-8.00593 -6.492624,-14.498553 -14.498552,-14.498553 -8.005931,0 -14.498553,6.492623 -14.498553,14.498553 0,8.00593 6.492622,14.498554 14.498553,14.498554 0.401538,0 0.798845,-0.01724 1.192084,-0.04946 -0.280539,0.366455 -0.531958,0.753975 -0.776087,1.143871 l -2.862075,4.572907 C 13.033449,45.881326 5.2293155,37.313429 5.2293155,26.924255 c 0,-11.2173 9.0969145,-20.3142152 20.3142135,-20.3142152 z"
   id="path3015"
   style="fill:#e31e24;fill-opacity:1;fill-rule:evenodd" /><path
   d="m 96.331355,47.305475 -4.418279,0 -1.858494,-4.1271 C 89.706576,42.405467 88.799623,40.555879 87.93166,40.555879 l 0,6.749596 -3.797821,0 0,-15.969321 3.797821,0 0,6.409207 c 1.093764,0.05265 1.759649,-2.256767 2.122922,-3.174431 0.573169,-1.447976 1.102426,-2.660724 2.488857,-3.071203 0.706524,-0.209167 1.833078,-0.28255 3.356976,-0.28255 l 0,2.912663 c -1.878311,-0.08785 -2.410834,0.308206 -2.718885,1.007647 -0.532002,1.207915 -0.67833,2.719363 -1.930994,3.839671 1.377203,0.803435 2.10016,2.343451 2.920435,3.990439 l 2.160384,4.337878 z M 67.876607,39.296648 c 0,-2.606423 0.679863,-4.636501 2.0327,-6.086571 1.356214,-1.453777 3.243225,-2.178829 5.660948,-2.178829 2.480113,0 4.391367,0.713897 5.733771,2.141651 1.338943,1.424048 2.011878,3.424403 2.011878,5.99361 0,1.866511 -0.29484,3.398342 -0.881059,4.591879 -0.586212,1.193492 -1.432587,2.123038 -2.539117,2.788601 -1.109998,0.665525 -2.48704,0.996453 -4.1416,0.996453 -1.678893,0 -3.069875,-0.286301 -4.172861,-0.858902 -1.099641,-0.576301 -1.991089,-1.483537 -2.677918,-2.725369 -0.683324,-1.241864 -1.026742,-2.796051 -1.026742,-4.662523 z m 3.861705,0.02307 c 0,1.739472 0.347729,2.986053 1.047525,3.74756 0.699763,0.757519 1.65597,1.138308 2.859902,1.138308 1.238803,0 2.199328,-0.372772 2.877374,-1.114263 0.678052,-0.745474 1.021425,-2.080228 1.021425,-4.004088 0,-1.623266 -0.356423,-2.805686 -1.064925,-3.555188 -0.708419,-0.74548 -1.669021,-1.118252 -2.885996,-1.118252 -1.16051,0 -2.094967,0.376761 -2.799119,1.138308 -0.704152,0.757518 -1.056186,2.016067 -1.056186,3.767615 z m -4.840597,7.918849 -3.791015,0 0,-12.664544 -3.84636,0 0,5.529475 c 0,2.018806 0.0026,3.626037 -0.185039,4.574157 -0.187295,0.948113 -0.620046,1.643488 -1.304624,2.085867 -0.684574,0.442417 -1.387475,0.541984 -2.914959,0.541984 -0.468238,0 -1.004305,-0.05948 -1.608202,-0.174767 l 0,-2.987619 0.418011,0 c 0.465983,0 1.353601,0.1334 1.671278,-0.257101 0.370362,-0.455267 0.173077,-1.737493 0.173077,-2.36669 l 0,-10.250082 11.387833,0 0,15.96932 z m -23.640851,-9.815848 3.739944,0 c 8.049267,0 7.752776,9.815848 0.208079,9.815848 l -7.655463,0 0,-15.96932 12.017752,0 0,3.23477 -8.310312,0 0,2.918702 z m 0,6.537212 3.391696,0 c 1.568003,0 2.352026,-0.584924 2.352026,-1.758444 0,-1.029275 -0.784062,-1.543993 -2.352026,-1.543993 l -3.391696,0 0,3.302437 z m -8.715595,-6.221145 -3.471246,0 c -0.710232,0 -1.336846,-0.171022 -1.773465,-0.703669 -0.214362,-0.261406 -0.320899,-0.565106 -0.320899,-0.907874 0,-0.506746 0.171224,-0.892291 0.510289,-1.163041 0.3412,-0.272407 0.8069,-0.408307 1.74241,-0.408307 l 3.312911,0 0,3.182891 z m 3.749128,9.499781 0,-15.96932 -7.212479,0 c -2.977875,0 -5.474863,0.674624 -5.921995,4.092583 -0.122407,0.936191 0.03154,1.797227 0.479636,2.63349 0.345067,0.644013 0.820756,1.280576 1.423847,1.679654 0.385748,0.255291 0.914082,0.464735 1.583552,0.628347 -0.764447,0.480323 -1.375553,1.121681 -2.128842,2.325245 l -2.885355,4.610001 4.469671,0 3.284193,-4.80568 c 0.838801,-1.227363 1.117327,-1.598815 2.761095,-1.598815 l 0.397549,0 0,6.404495 3.749128,0 z M 95.568114,39.29668 c 0,-2.606423 0.679863,-4.6365 2.0327,-6.086571 1.35622,-1.453777 3.243226,-2.178828 5.660946,-2.178828 2.48011,0 4.39137,0.713896 5.73377,2.14165 1.33895,1.424048 2.01188,3.424403 2.01188,5.99361 0,1.866511 -0.29484,3.398342 -0.88105,4.591879 -0.58622,1.193492 -1.4326,2.123039 -2.53913,2.788602 -1.10999,0.665524 -2.48704,0.996452 -4.1416,0.996452 -1.67889,0 -3.06986,-0.2863 -4.172857,-0.858902 -1.099641,-0.576301 -1.991088,-1.483537 -2.677918,-2.725369 -0.683323,-1.241863 -1.026741,-2.796051 -1.026741,-4.662523 z m 3.861704,0.02307 c 0,1.739472 0.347729,2.986053 1.047522,3.747561 0.69977,0.757518 1.65598,1.138308 2.85991,1.138308 1.2388,0 2.19932,-0.372773 2.87738,-1.114264 0.67804,-0.745474 1.02141,-2.080228 1.02141,-4.004088 0,-1.623265 -0.35642,-2.805686 -1.06492,-3.555187 -0.70842,-0.745481 -1.66902,-1.118253 -2.886,-1.118253 -1.1605,0 -2.09496,0.376761 -2.79912,1.138308 -0.704141,0.757518 -1.056182,2.016067 -1.056182,3.767615 z"
   id="path10"
   style="fill:#21a73f;fill-opacity:1;fill-rule:nonzero" /><polygon
   points="30.0858,50.0422 64.2991,101.386 12.9553,67.1727 23.498,60.5849 "
   transform="matrix(0.40278556,0,0,0.40278556,-3.3367251,-16.89975)"
   id="polygon14"
   style="fill:#21a73f;fill-opacity:1" /></svg>