<svg xmlns="http://www.w3.org/2000/svg" version="1.1" width="400" height="180" viewBox="0 0 112.889 50.8" id="svg2" xml:space="preserve" fill-rule="evenodd"><defs id="defs4"><style type="text/css" id="style6"/></defs><path d="M25.544 6.61c11.217 0 20.314 9.097 20.314 20.314a20.41 20.41 0 01-.359 3.815h-5.965c.331-1.216.508-2.495.508-3.815 0-8.006-6.493-14.498-14.498-14.498-8.006 0-14.499 6.492-14.499 14.498s6.493 14.499 14.499 14.499c.401 0 .798-.017 1.192-.05-.28.367-.532.754-.776 1.144l-2.863 4.573C13.033 45.881 5.23 37.313 5.23 26.924c0-11.217 9.097-20.314 20.315-20.314z" id="path3015" fill="#e31e24" fill-opacity="1" fill-rule="evenodd"/><path d="M96.331 47.305h-4.418l-1.858-4.127c-.348-.773-1.255-2.622-2.123-2.622v6.75h-3.798v-15.97h3.798v6.41c1.093.052 1.76-2.257 2.123-3.175.573-1.448 1.102-2.66 2.488-3.071.707-.21 1.834-.283 3.357-.283v2.913c-1.878-.088-2.41.308-2.718 1.007-.532 1.208-.679 2.72-1.931 3.84 1.377.804 2.1 2.344 2.92 3.99l2.16 4.338zm-28.454-8.008c0-2.607.68-4.637 2.032-6.087 1.357-1.454 3.244-2.179 5.661-2.179 2.48 0 4.392.714 5.734 2.142 1.339 1.424 2.012 3.424 2.012 5.994 0 1.866-.295 3.398-.881 4.591-.586 1.194-1.433 2.123-2.54 2.789-1.11.666-2.486.996-4.14.996-1.68 0-3.07-.286-4.174-.858-1.1-.577-1.99-1.484-2.678-2.726-.683-1.242-1.026-2.796-1.026-4.662zm3.861.023c0 1.74.348 2.986 1.048 3.747.7.758 1.656 1.139 2.86 1.139 1.239 0 2.2-.373 2.877-1.115.678-.745 1.022-2.08 1.022-4.004 0-1.623-.357-2.805-1.065-3.555-.709-.745-1.67-1.118-2.886-1.118-1.16 0-2.095.377-2.8 1.138-.704.758-1.056 2.016-1.056 3.768zm-4.84 7.919h-3.791V34.574H59.26v5.53c0 2.018.003 3.626-.185 4.574-.187.948-.62 1.643-1.304 2.086-.685.442-1.388.542-2.915.542-.469 0-1.005-.06-1.608-.175v-2.988h.418c.466 0 1.353.134 1.67-.257.371-.455.174-1.737.174-2.367V31.27h11.388v15.97zm-23.641-9.816h3.74c8.05 0 7.753 9.816.208 9.816h-7.656v-15.97h12.018v3.235h-8.31v2.919zm0 6.537h3.392c1.568 0 2.352-.585 2.352-1.759 0-1.029-.784-1.544-2.352-1.544h-3.392v3.303zm-8.716-6.221H31.07c-.71 0-1.337-.171-1.773-.704a1.391 1.391 0 01-.321-.908c0-.507.17-.892.51-1.163.341-.272.807-.408 1.742-.408h3.313v3.183zm3.75 9.5v-15.97h-7.213c-2.978 0-5.475.675-5.922 4.093a4.232 4.232 0 00.48 2.633c.345.644.82 1.28 1.423 1.68.386.255.914.465 1.584.628-.764.48-1.376 1.122-2.129 2.326l-2.885 4.61h4.47l3.284-4.806c.838-1.227 1.117-1.599 2.76-1.599h.398v6.405h3.75zm57.277-7.942c0-2.607.68-4.637 2.033-6.087 1.356-1.454 3.243-2.179 5.66-2.179 2.48 0 4.392.714 5.735 2.142 1.338 1.424 2.011 3.424 2.011 5.994 0 1.866-.294 3.398-.88 4.591-.587 1.194-1.433 2.123-2.54 2.789-1.11.666-2.487.996-4.141.996-1.68 0-3.07-.286-4.173-.858-1.1-.577-1.991-1.484-2.678-2.726-.683-1.242-1.027-2.796-1.027-4.662zm3.862.023c0 1.74.348 2.986 1.047 3.747.7.758 1.656 1.139 2.86 1.139 1.239 0 2.2-.373 2.878-1.115.678-.745 1.021-2.08 1.021-4.004 0-1.623-.356-2.805-1.065-3.555-.708-.745-1.669-1.118-2.886-1.118-1.16 0-2.095.377-2.799 1.138-.704.758-1.056 2.016-1.056 3.768z" id="path10" fill="#21a73f" fill-opacity="1" fill-rule="nonzero"/><path transform="translate(-3.337 -16.9) scale(.40279)" id="polygon14" fill="#21a73f" fill-opacity="1" d="M30.086 50.042l34.213 51.344-51.344-34.213 10.543-6.588z"/></svg>