<svg xmlns="http://www.w3.org/2000/svg" height="325.61" width="290.91"><path d="M145.79 83.24c-29.05-26.48-45.6-.4-88.29 0l27.65 143.94c12.34 0 26.38-9 34.4-9 11.52-.16 17.8 2.8 25.85 7.4.14.1.2.14.4 0 .13-.1.2-.12.4-.18 9.72-5.2 18.96-9 27.88-8.4 9.58 0 20.47 7.8 33.19 9.4l24.42-145.56c-42.7-.38-57.65-24.89-85.9 2.4z" stroke="#d40000" stroke-miterlimit="2.613" stroke-width="2.158" fill="none"/><path d="M45.927 285.913l22.376 39.673H41.077l-14.785-31.07h-1.315v31.07H1.902v-72.984h23.075v28.461h.967l13.63-28.461h25.132l-18.779 33.311zm193.456-41.273h23.072v11.851h9.738c11.776 0 18.719 12.423 18.719 27.752 0 15.306-8.363 27.73-18.72 27.753h-9.737v13.613h-23.072v-13.613h-9.76c-10.334 0-18.72-12.447-18.72-27.753 0-15.329 6.942-27.752 18.72-27.752h9.76V244.64zm23.072 27.226c8.065 1.075 8.134 5.994 8.134 11.897 0 5.857-.78 10.73-8.134 11.851v-23.748zm-23.072 0c-8.088 1.075-8.134 5.994-8.134 11.897 0 5.857.756 10.73 8.134 11.851v-23.748zm-94.854-19.264h41.996c11.776 0 18.719 11.096 18.719 24.778 0 13.704-8.386 24.778-18.72 24.778H167.6v23.428h-23.07zm25.957 14.413c9.12.778 12.052 4.645 12.052 9.312 0 5.148-1.26 9.335-14.939 9.45v-18.762zm-96.83-14.436v73.052h23.063v-54.543h15.44v54.543h23.061V252.58zM286.925 135.53c.825 0 1.352-.229 1.627-.435.275-.229.366-.71.298-1.441v-.504h.412l.71 8.008h-.412v-.526c0-.687-.23-1.144-.504-1.327-.298-.229-.894-.275-1.787-.229l-9.875.87c-.917 0-1.49.251-1.742.503s-.343.732-.275 1.395v.527h-.412l-.687-8.03h.39v.502c0 .687.251 1.144.549 1.35.275.23.87.252 1.764.23l8.157-.71-8.775-4.553a3.11 3.11 0 00-1.513.389c-.297.229-.412.71-.343 1.487v.526h-.413l-.687-8.03h.39v.48c0 .71.251 1.167.55 1.35.297.229.87.275 1.764.229l9.875-.87c.893 0 1.466-.228 1.718-.411.252-.23.344-.687.275-1.488v-.48h.412l.71 8.03h-.412v-.503c0-.686-.252-1.12-.55-1.327-.32-.229-.893-.251-1.741-.229l-8.225.71 8.752 4.553zm-8.088 15.054v-5.308l-1.443-.64c-.482-.23-.894-.344-1.215-.344-.412 0-.733.23-.94.504-.228.229-.228.663-.274 1.464h-.412v-4.988h.412c0 .55.298 1.007.664 1.35s1.1.801 2.246 1.327l11.914 5.583v.229l-12.441 5.216c-1.192.48-1.925.892-2.223 1.235-.229.252-.39.595-.435 1.053h-.412l.229-7.276h.412v.298c0 .595 0 1.006.23 1.235 0 .229.274.252.48.252h.413s.366-.229.848-.32l1.901-.778zm.825-.366l5.2-2.128-5.131-2.402v4.53zm7.171 23.771c0-.8 0-1.35-.229-1.601-.229-.275-.687-.458-1.397-.526l-10.38-1.282c-.779 0-1.306 0-1.58.23-.252.228-.459.731-.573 1.578h-.413l.917-7.527h.412v1.28c0 .253.23.458.413.596.229.229.618.251 1.191.32l11.731 1.441.435-3.592-4.468-.549c-1.855-.228-3.276-.457-4.238-.663-.963-.229-1.856-.572-2.68-1.098-.849-.527-1.444-1.144-1.811-1.854a3.966 3.966 0 01-.39-2.242c0-.709.367-1.258.78-1.601.435-.343.916-.504 1.489-.412.458 0 .825.229 1.077.48.275.298.39.664.32 1.122 0 .846-.687 1.235-1.74 1.19-.482 0-.734.228-.78.48 0 .457.23.983.756 1.578.55.595 1.375 1.053 2.429 1.35 1.077.298 2.635.572 4.697.824l2.818.343h1.627c.298 0 .504-.252.664-.526.23-.252.275-.755.39-1.487h.412l-1.49 12.126h-.412zm-6.025 12.973c.801.229 1.351.251 1.672.229.32 0 .573-.527.78-1.236l.228-.48h.39l-2.085 7.801-.413-.228.23-.504c.229-.686.229-1.144 0-1.441-.23-.275-.734-.55-1.604-.778l-9.555-2.562c-.916-.252-1.512-.275-1.833-.23-.32.23-.55.55-.733 1.213l-.229.504h-.39l2.086-7.78h.389v.481c-.23.664-.23 1.167 0 1.442s.756.526 1.604.755l7.904 2.127-6.667-7.275c-.687-.229-1.237-.229-1.58-.229s-.62.503-.826 1.258l-.229.504h-.39l2.086-7.802h.412l-.229.48c-.23.687-.23 1.167 0 1.442.23.297.733.549 1.604.778l9.577 2.562c.87.229 1.466.298 1.764.229.298 0 .55-.55.756-1.304l.23-.48h.389l-2.085 7.801-.39-.229v-.503c.23-.663.23-1.144 0-1.418-.229-.298-.733-.572-1.558-.778l-7.973-2.128 6.668 7.253zm-4.377 6.955l4.33 1.67-.228.39c-.527 0-.848 0-.963.274v.8c0 1.053-.229 2.014-.48 2.837-.55 1.442-1.33 2.403-2.338 2.929-1.008.503-1.993.595-2.91.229-.435-.229-.847-.435-1.214-.801s-.642-.847-.825-1.464c-.229-.618-.229-1.465 0-2.608-.825 1.395-1.718 2.287-2.658 2.608-.94.343-1.833.343-2.657 0a3.741 3.741 0 01-1.765-1.396c-.458-.64-.71-1.441-.733-2.356 0-.916.23-1.99.642-3.18.458-1.167.962-2.037 1.558-2.586.572-.549 1.329-.96 2.245-1.235l.275.594c-1.398.572-2.314 1.373-2.704 2.449-.343.869-.32 1.647 0 2.356.367.732 1.008 1.258 1.925 1.602.687.274 1.352.343 1.97.228.619-.228 1.123-.389 1.444-.778.344-.388.687-1.006 1.054-1.898l.916.366c0 .228-.229.434-.252.594-.366.961-.366 1.74 0 2.357.39.618 1.077 1.098 2.108 1.51.985.366 1.764.435 2.36.229.573-.252.985-.664 1.192-1.236.297-.755.229-1.487-.23-2.219-.435-.686-1.168-1.304-2.268-1.785l.23-.457zm-15.236 19.035l6.69 8.374-2.978 5.354-.344-.229.229-.435c.23-.389.32-.732.32-1.03 0-.228 0-.434-.251-.64-.23-.229-.504-.435-1.146-.778l-8.683-4.804c-.665-.39-1.123-.572-1.33-.595-.229 0-.435 0-.687.229s-.458.411-.664.777l-.23.435-.389-.229 3.826-6.863.367.228-.252.412c-.23.39-.32.732-.298 1.053 0 .228 0 .434.252.64 0 .23.504.412 1.146.778l9.783 5.4-9.233-11.669.229-.251 14.778 1.487-9.28-5.125c-.664-.366-1.053-.572-1.237-.618-.366 0-.733 0-1.076.229-.367.229-.71.55-1.054 1.144l-.367-.229 2.497-4.507.367.229c-.23.297-.275.595-.32.915v.778c0 .229.274.457.55.71 0 0 .389.228.984.548l8.317 4.622c.665.366 1.1.572 1.306.595.23 0 .436 0 .688-.23s.48-.411.687-.777l.23-.412.366.229-2.979 5.376-10.723-1.098zM257.21 62.23c1.81 0 3.27 1.46 3.27 3.24 0 1.81-1.46 3.28-3.27 3.28-1.79 0-3.26-1.47-3.26-3.28 0-1.78 1.47-3.24 3.26-3.24zm-3.85 166.14c1.81 0 3.28 1.47 3.28 3.25 0 1.81-1.47 3.27-3.28 3.27a3.26 3.26 0 010-6.52zm-212.98 3.48c1.8 0 3.27 1.44 3.27 3.25 0 1.78-1.47 3.25-3.27 3.25s-3.26-1.44-3.26-3.25c0-1.79 1.46-3.25 3.26-3.25zM9.49 117.84c1.8 0 3.27 1.47 3.27 3.28 0 1.78-1.47 3.24-3.27 3.24s-3.26-1.46-3.26-3.24c0-1.81 1.46-3.28 3.26-3.28zm41.03-73.85c1.81 0 3.27 1.47 3.27 3.25a3.265 3.265 0 11-6.53 0c0-1.78 1.46-3.25 3.26-3.25zM31.16 220.53l3.55-2.22c.68-.44 1.09-.74 1.21-.94.14-.23.19-.44.16-.71 0-.3-.23-.73-.58-1.31l.35-.22 4.05 6.47-.35.23c-.36-.57-.67-.94-.92-1.08-.23-.22-.47-.22-.7-.22s-.69.25-1.37.68l-8.29 5.17c-.69.44-1.1.73-1.23.94-.11.23-.18.44-.14.71 0 .3.21.71.59 1.3l-.35.23-3.49-5.56c-1.14-1.83-1.63-3.34-1.47-4.53.16-1.21.71-2.12 1.7-2.74.82-.51 1.69-.69 2.6-.55.92.23 1.76.62 2.54 1.37.53.53 1.25 1.51 2.15 2.95zm-6.25 3.88l5.52-3.43c-.12-.23-.21-.39-.28-.48-.47-.78-1.07-1.21-1.78-1.35-.72 0-1.56 0-2.51.71-.95.57-1.51 1.21-1.69 1.92-.18.69 0 1.42.5 2.25l.24.38zm-9.48-14.32c-1.18-2.08-1.44-4.14-.79-6.15.64-1.99 1.96-3.53 3.96-4.53 1.7-.87 3.45-1.12 5.25-.78 2.39.43 4.19 1.85 5.42 4.26 1.23 2.42 1.36 4.69.4 6.84-.76 1.69-2.04 2.99-3.81 3.91-1.99 1.01-4 1.17-6.01.5-2.02-.68-3.5-2.03-4.42-4.05zm.56-.43c.63 1.21 1.74 1.83 3.31 1.83 1.29 0 2.91-.51 4.84-1.47 2.28-1.16 3.77-2.42 4.45-3.79.49-.94.47-1.93 0-2.93-.35-.67-.8-1.17-1.36-1.44-.72-.37-1.62-.48-2.72-.32-1.09.22-2.38.59-3.87 1.35-1.77.91-3.02 1.73-3.72 2.51-.72.78-1.13 1.51-1.23 2.22-.11.69 0 1.37.35 2.04zM5.47 185.89l4.96-1.61.14.42c-1.2.71-2 1.62-2.42 2.7a4.693 4.693 0 00-.1 3.2c.29.89.81 1.62 1.57 2.2.76.57 1.6.91 2.55.98 1.21 0 2.46 0 3.76-.48 1.28-.41 2.39-.96 3.34-1.63.95-.66 1.58-1.44 1.89-2.28.32-.87.3-1.86-.1-2.95-.28-.9-.75-1.65-1.39-2.29-.64-.6-1.57-1.17-2.8-1.7l1.23-.41c1.09.55 1.98 1.17 2.63 1.92.67.76 1.18 1.72 1.56 2.86.49 1.54.64 2.98.4 4.37-.23 1.38-.8 2.57-1.74 3.6-.94 1-2.06 1.74-3.35 2.15-1.37.45-2.78.5-4.24.23-1.45-.3-2.72-.97-3.79-1.95-1.07-1.01-1.82-2.17-2.27-3.55-.32-1-.46-2.12-.38-3.38v-1.37c-.1-.23-.21-.39-.44-.51-.21-.23-.52-.23-.89 0l-.16-.52zm-3.83-15.72L6.72 169l.1.41c-1.25.64-2.13 1.47-2.64 2.47-.5 1.03-.64 2.11-.38 3.21.21.91.67 1.67 1.37 2.31.71.66 1.52 1.05 2.46 1.21 1.19.23 2.46.23 3.79-.23 1.31-.3 2.47-.75 3.47-1.32 1.01-.58 1.69-1.29 2.09-2.13.38-.83.45-1.79.18-2.93-.2-.92-.61-1.72-1.19-2.38-.58-.69-1.46-1.33-2.65-1.95l1.27-.29c1.05.62 1.87 1.35 2.46 2.13.6.82 1.02 1.8 1.3 2.99.36 1.56.37 3.02 0 4.37-.35 1.37-1.03 2.52-2.05 3.43-1.03.94-2.2 1.56-3.53 1.86-1.4.32-2.8.27-4.23-.23-1.43-.44-2.63-1.19-3.61-2.27a8.242 8.242 0 01-1.95-3.73c-.24-1.03-.27-2.17-.1-3.4.12-.74.14-1.19.1-1.35 0-.26-.18-.42-.39-.55-.21-.23-.5-.23-.88-.23l-.1-.41zm1.24-14.71c-.81 0-1.35.23-1.62.41-.28.23-.39.69-.33 1.44v.5H.52l-.56-8.03h.41v.53c0 .69.2 1.14.49 1.35.29.23.87.27 1.78.23l9.88-.69c.92 0 1.5-.23 1.75-.46.25-.25.35-.7.3-1.39l-.1-.53h.41l.56 8.03h-.4v-.48c0-.71-.23-1.14-.51-1.35-.29-.23-.88-.27-1.78-.23l-8.15.58 8.67 4.69c.72 0 1.23-.23 1.53-.37.31-.23.43-.69.37-1.46l-.1-.53h.41l.57 8.03h-.41v-.5c0-.71-.23-1.17-.52-1.35-.29-.23-.88-.28-1.78-.23l-9.88.68c-.89 0-1.48.23-1.73.42-.25.23-.34.68-.29 1.46v.5h-.41l-.56-8.05h.41v.53c0 .68.23 1.12.53 1.32.31.23.88.3 1.73.23l8.24-.57-8.69-4.71zm5.41-17.21l4.22.23c.81 0 1.32 0 1.52.23.21 0 .38.27.49.53.12.27.16.73.14 1.41h.41l.27-7.68h-.41c0 .68-.12 1.16-.25 1.39-.14.25-.31.44-.52.53-.21 0-.73.23-1.54 0l-9.77-.34c-.81 0-1.31 0-1.53-.23-.2-.23-.36-.28-.48-.55-.12-.25-.16-.71-.14-1.42H.29l-.24 6.98c-.1 1.81 0 3.16.24 4 .21.85.66 1.56 1.31 2.11.67.55 1.45.84 2.36.87 1.11 0 2.04-.32 2.79-1.1.48-.48.85-1.19 1.11-2.11l4.97 3.8c.64.5 1.04.85 1.19 1.05.23.3.34.67.35 1.08h.4l.16-4.74-6.69-5.08v-.98zM.91 138l6.59.23v.64c-.1 1.03-.16 1.78-.37 2.29-.21.5-.55.89-1.06 1.16-.51.28-1.15.42-1.94.37-1.14 0-1.99-.32-2.51-.89-.53-.55-.77-1.42-.74-2.61V138zm8.65-44.86l3.86 1.32-.11.37h-2.18c-.48.23-.92.41-1.31.8-.23.23-.44.66-.67 1.33l-.37 1.05 10.98 3.77c.73.25 1.2.37 1.41.37.2 0 .42-.23.63-.32.23-.23.4-.48.55-.89l.16-.46h.38l-2.57 7.46-.38-.23.16-.48c.14-.41.18-.76.11-1.08 0-.23-.16-.41-.36-.59-.13-.23-.56-.32-1.27-.57l-10.99-3.78-.36 1.03c-.33.96-.36 1.72-.11 2.29.36.8 1.03 1.46 2.03 1.99l-.14.41-3.86-1.33 4.41-12.76zm10.68-4.08l3.78 1.76c.74.35 1.22.51 1.46.51.23 0 .46 0 .68-.28.23-.23.48-.57.77-1.19l.36.23-3.23 6.93-.36-.22c.29-.64.43-1.1.42-1.38 0-.27-.1-.5-.25-.68-.13-.23-.58-.44-1.32-.78l-8.85-4.12c-.74-.34-1.23-.5-1.46-.5s-.46 0-.68.25c-.23.23-.47.57-.77 1.21l-.38-.23 2.78-5.95c.91-1.94 1.92-3.18 3.02-3.7 1.09-.53 2.16-.55 3.21 0 .88.41 1.51 1.05 1.89 1.9.37.82.44 1.78.23 2.86-.14.73-.58 1.85-1.29 3.41zm-6.68-3.11l5.89 2.75c.12-.23.21-.39.25-.51.39-.82.44-1.55.17-2.22-.28-.66-.94-1.23-1.95-1.71-1.02-.48-1.86-.6-2.54-.37-.67.23-1.22.78-1.63 1.65l-.18.41zm8.97-18.6L25.06 63l.35.23c-.23.48-.27.94-.14 1.4.11.43.5 1.14 1.13 2.13l5.62 8.62c.88 1.35 1.33 2.36 1.37 2.98 0 .64-.16 1.28-.52 1.92-.41.68-.9 1.12-1.48 1.26-.59.22-1.11 0-1.59-.23-.37-.23-.61-.53-.71-.92s0-.78.16-1.14c.21-.35.43-.55.71-.6.27 0 .65 0 1.16.23.59.23 1 .23 1.23-.23.25-.43.1-1.12-.56-2.01l-.28-.41L20.35 76c-.94 0-1.6 0-1.98.23s-.75.52-1.11 1.07l-.36-.23 3.76-6.47.36.23-.14.25c-.44.75-.49 1.24-.12 1.44.14 0 .38.23.73.23l7.82.23-3.44-5.26c-.47-.74-.85-1.17-1.13-1.33-.23-.23-.46-.23-.72 0-.25.23-.63.57-1.12 1.37l-.36-.23zm4.23-6.45l7.83-9.66.32.26c-.55.75-.82 1.3-.79 1.64 0 .35.36.78.99 1.28l7.81 6.32c.5.41.88.64 1.13.73.26 0 .55 0 .89-.23.33-.23.68-.46 1.03-.91l3.74 3.02-.26.34c-1.07-.76-2.19-1.08-3.36-.92-1.17.23-2.23.83-3.17 1.97l-2.58 3.18c-.97 1.21-1.46 2.43-1.46 3.62 0 1.21.5 2.31 1.51 3.31l-.26.33-3.73-3.05c.86-1.62.73-3.43-.42-5.35-1.13-1.95-3.07-4.03-5.82-6.25-.67-.52-1.18-.75-1.58-.68-.38 0-.88.45-1.5 1.21l-.32-.28zm5.21-4.87l-2.38 2.92 1.01.83c1.4 1.12 2.69 2.33 3.87 3.59 1.18 1.28 2.02 2.38 2.52 3.32.49.96.79 1.9.87 2.88l3.37-4.16c.46-.58.69-.94.69-1.1 0-.23-.21-.41-.64-.76l-9.31-7.52zm32.91-22.27l2.67 3.8c.44.64.75 1.01.93 1.12.19.23.41.23.7.23s.6-.23.95-.39l.41-.29.23.34-6.45 4.51-.23-.32.41-.3c.36-.25.6-.53.72-.8.12-.23.12-.41.1-.69 0-.23-.27-.59-.69-1.21l-5.69-8.1c-.44-.64-.75-1.01-.93-1.12-.18 0-.41-.23-.7 0-.27 0-.6.23-.94.39l-.41.29-.23-.34 6.44-4.51.24.35-.41.27c-.35.25-.6.51-.73.8-.1.23-.12.41-.1.69 0 .23.27.59.7 1.21l2.44 3.5 4.36-3.04-2.44-3.5c-.45-.62-.76-.99-.94-1.1-.18 0-.41-.23-.69-.23-.29 0-.6.23-.95.41l-.4.28-.25-.35 6.45-4.5.24.34-.4.28c-.37.25-.61.52-.74.8-.1.22-.11.43-.1.71.1.22.27.59.7 1.21l5.69 8.1c.43.61.75.98.93 1.1.16.22.4.22.69.22s.6-.22.95-.41l.41-.27.23.34-6.45 4.51-.23-.35.4-.27c.37-.25.61-.53.74-.8.1-.23.11-.44.1-.71-.1-.23-.27-.59-.71-1.21l-2.67-3.82-4.36 3.06zm19.34-8.16L79.48 28l.1 1.6c0 .53.12.94.27 1.21.21.39.49.6.89.6.23 0 .7-.23 1.43-.44l.18.37-4.46 2.29-.19-.37c.44-.32.74-.73.88-1.21s.18-1.35.11-2.61l-.65-13.11h.19l10.44 8.51c.99.8 1.7 1.26 2.14 1.4.33 0 .71 0 1.13-.23l.19.36-6.49 3.3-.18-.37h.26c.52-.27.85-.52.99-.78.1-.22.1-.36 0-.57-.1-.23-.14-.23-.25-.34-.1 0-.27-.25-.67-.6l-1.57-1.3zm-.71-.55l-4.35-3.59.29 5.65 4.06-2.06zm10.51-6.71l1.49 3.89c.29.76.52 1.22.69 1.38.16.22.39.27.68.29.29 0 .74 0 1.38-.34l.14.39-7.15 2.74-.14-.38c.66-.26 1.07-.48 1.26-.69.18-.23.28-.44.3-.66 0-.23-.11-.71-.41-1.49l-3.5-9.11c-.29-.75-.52-1.21-.69-1.37-.16-.23-.39-.25-.68-.27-.28 0-.73 0-1.38.32l-.16-.39 6.13-2.34c2.02-.77 3.6-.98 4.75-.59 1.16.39 1.95 1.12 2.36 2.19.35.9.36 1.79 0 2.66-.32.87-.93 1.6-1.83 2.22-.61.43-1.71.94-3.3 1.55zm-2.65-6.86l2.33 6.06c.23 0 .41-.23.53-.23.84-.32 1.4-.82 1.66-1.48.27-.69.2-1.56-.21-2.61-.4-1.03-.92-1.72-1.56-2.01-.65-.32-1.42-.28-2.32 0l-.43.22zm16.26-6.57c2.29-.71 4.36-.55 6.19.51 1.83 1.05 3.04 2.65 3.62 4.8.49 1.85.38 3.62-.32 5.29-.94 2.24-2.71 3.73-5.31 4.41-2.62.71-4.88.37-6.79-1.03-1.5-1.1-2.51-2.61-3.03-4.53-.58-2.15-.32-4.14.76-5.97 1.09-1.83 2.71-3 4.88-3.48zm.31.64c-1.33.37-2.15 1.31-2.48 2.84-.28 1.28-.14 2.95.43 5.03.66 2.48 1.6 4.19 2.79 5.15.82.67 1.79.85 2.88.55.74-.23 1.3-.52 1.71-1.03.5-.62.79-1.49.88-2.58.1-1.1-.1-2.45-.53-4.05-.52-1.92-1.09-3.32-1.69-4.17-.62-.84-1.26-1.42-1.92-1.67-.65-.23-1.34-.25-2.07 0zm12.16-3.22L132.45.82v.41c-.92.23-1.48.34-1.7.62-.23.27-.28.8-.18 1.6l1.23 9.97c.1.62.18 1.06.3 1.31.14.23.37.41.72.52.34.23.8.23 1.37 0l.59 4.76h-.42c-.24-1.28-.84-2.26-1.79-2.95-.94-.71-2.17-.98-3.65-.8l-4.07.5c-1.54.23-2.72.71-3.56 1.58-.83.87-1.25 2.02-1.22 3.44h-.4l-.59-4.76c1.77-.58 2.93-1.97 3.45-4.14.52-2.2.57-5.04.13-8.52-.1-.86-.31-1.39-.63-1.62s-.97-.27-1.94-.23V2.1zm7.15 0l-3.76.46.16 1.28c.21 1.78.3 3.54.28 5.28-.1 1.72-.21 3.09-.51 4.12a7.235 7.235 0 01-1.36 2.65l5.31-.64c.73 0 1.14-.23 1.26-.29.11-.23.16-.46.1-1.01l-1.45-11.85zM143.08.04c2.4-.23 4.36.53 5.89 1.99 1.52 1.47 2.3 3.32 2.34 5.54 0 1.9-.5 3.59-1.58 5.05-1.45 1.95-3.53 2.96-6.23 3-2.7 0-4.81-.85-6.33-2.63-1.2-1.44-1.81-3.16-1.85-5.13 0-2.24.7-4.11 2.18-5.62 1.51-1.51 3.36-2.25 5.58-2.2zm.16.71c-1.38 0-2.42.73-3.11 2.15-.56 1.17-.83 2.81-.78 4.99 0 2.56.53 4.44 1.45 5.65.64.85 1.53 1.26 2.67 1.23.76 0 1.39-.22 1.89-.57.65-.48 1.14-1.26 1.49-2.29.34-1.05.5-2.4.47-4.07 0-1.99-.25-3.48-.63-4.46-.4-.98-.88-1.67-1.46-2.06s-1.25-.59-1.99-.57zm20.01 7.78c1.37.48 2.31 1.03 2.84 1.55.75.78 1.03 1.7.91 2.75-.23 1.12-.71 1.99-1.69 2.61-1.22.78-2.89 1-5 .75l-7.59-.94.1-.38h1.43c.25 0 .43-.23.57-.44 0-.23.23-.69.32-1.49l1.19-9.67c.23-.83.23-1.33 0-1.56 0-.23-.23-.41-.46-.55-.23-.23-.68-.27-1.37-.36V.38l7.17.87c1.69.23 2.91.53 3.57.92.69.39 1.19.91 1.52 1.58.34.64.48 1.3.39 1.99 0 .73-.44 1.32-1.01 1.83-.6.5-1.58.82-2.94 1zm-3.97-.8c1.03.23 1.81.23 2.34 0s.96-.46 1.26-.85c.32-.39.53-.91.6-1.58 0-.66 0-1.21-.23-1.67s-.55-.82-1.01-1.1c-.44-.27-1.22-.48-2.29-.59l-.71 5.86zm0 .87l-.59 4.78v.55c0 .39 0 .71.23.94.22.22.45.36.87.41.57 0 1.14 0 1.67-.23s.94-.53 1.28-.98c.32-.46.53-1.01.6-1.61 0-.71 0-1.35-.25-1.94-.26-.6-.65-1.03-1.2-1.33-.55-.27-1.37-.5-2.49-.62zm25.85-2.61c-.8-.23-1.33-.23-1.63 0s-.5.66-.69 1.33l-2.33 10.2c-.23.78-.23 1.3 0 1.58.22.3.66.52 1.49.73v.41l-7.41-1.71v-.39c.6.23 1.04.23 1.31.23.25 0 .46-.23.62-.37.23-.23.32-.57.43-1.14l2.66-11.49-3.53-.8-1 4.37c-.42 1.83-.78 3.2-1.1 4.14s-.78 1.79-1.38 2.56c-.62.76-1.28 1.29-2.02 1.58-.75.28-1.51.32-2.29.23-.71-.23-1.21-.46-1.51-.91-.3-.48-.39-.96-.27-1.54 0-.45.32-.77.62-1.03.29-.23.68-.29 1.12-.23.85.23 1.19.83 1.03 1.88 0 .46 0 .73.37.82.45 0 1.03 0 1.67-.59.64-.48 1.19-1.24 1.6-2.27.41-1.02.85-2.56 1.31-4.57l.64-2.77c.23-.78.25-1.33.23-1.6 0-.3-.23-.53-.44-.71-.25-.23-.73-.37-1.44-.55v-.39l11.94 2.75v.41zm6.69 13.29l-5.04-1.65-1.06 1.19c-.36.42-.57.76-.68 1.06 0 .41 0 .75.22 1.05.23.23.6.41 1.33.71l-.23.39-4.76-1.56.23-.39c.52 0 1.03 0 1.46-.23.46-.23 1.1-.82 1.93-1.76l8.84-9.72h.23l1.33 13.41c.23 1.25.32 2.1.55 2.49.23.3.46.53.89.71l-.22.39-6.95-2.27.23-.36h.28c.57.23.98.23 1.26.23.23 0 .32-.23.39-.42v-1.3l-.23-2.01zm0-.91l-.53-5.61-3.8 4.21 4.33 1.4zm23.96-.23l-2.36 4.64-.39-.23c.32-1.35.26-2.54-.23-3.59a4.53 4.53 0 00-2.19-2.33c-.83-.44-1.72-.6-2.66-.46-.96 0-1.79.48-2.5 1.1-.92.8-1.7 1.78-2.31 3-.62 1.21-1.04 2.37-1.22 3.52-.23 1.14 0 2.13.28 2.95.39.82 1.1 1.51 2.13 2.04.84.41 1.72.64 2.59.61.89 0 1.94-.25 3.2-.77l-.59 1.16c-1.15.39-2.22.58-3.23.51-.99 0-2.02-.37-3.12-.92-1.42-.73-2.54-1.67-3.37-2.81-.82-1.15-1.26-2.41-1.3-3.78 0-1.37.23-2.67.85-3.89.64-1.28 1.58-2.31 2.84-3.11 1.26-.82 2.61-1.23 4.07-1.3 1.47 0 2.82.25 4.11.91.96.46 1.83 1.19 2.68 2.13.48.55.82.85.98.94.23 0 .44.23.67 0 .23 0 .45-.28.68-.57l.37.22zm13.52 8.92l-2.15 3.46-.32-.23c.27-.92.43-1.65.39-2.13 0-.5-.23-.99-.48-1.47-.23-.27-.55-.57-1.15-.93l-.94-.62-6.16 9.84c-.42.66-.64 1.07-.67 1.28 0 .23 0 .43.23.71.23.25.39.48.73.71l.44.27-.23.34-6.69-4.16.23-.34.44.25c.36.23.71.34 1 .36.23 0 .44 0 .69-.22.23 0 .44-.48.85-1.13l6.14-9.83-.92-.58c-.87-.54-1.6-.75-2.22-.64-.87.23-1.67.69-2.41 1.54l-.34-.23 2.15-3.43 11.46 7.13zm8.73 10.2c.5-.61.78-1.12.83-1.44 0-.34-.23-.77-.81-1.26l-.39-.29.28-.32 6.19 5.17-.28.32-.39-.35c-.55-.43-.98-.64-1.33-.57-.34 0-.8.44-1.37 1.12l-6.37 7.58c-.6.71-.9 1.23-.9 1.58 0 .34.28.75.81 1.19l.41.34-.28.3-6.18-5.17.27-.33.39.33c.53.45.96.64 1.31.57.36 0 .8-.46 1.4-1.15l5.24-6.24-9.41 2.97c-.46.55-.74.99-.81 1.35 0 .34.23.78.81 1.28l.41.35-.28.32-6.16-5.2.25-.29.39.32c.53.43.99.61 1.33.57.34 0 .8-.46 1.37-1.15l6.37-7.57c.6-.69.9-1.19.92-1.51 0-.32-.25-.73-.85-1.23l-.36-.33.25-.32 6.18 5.18-.27.32-.39-.35c-.53-.43-.96-.59-1.33-.52-.37 0-.82.43-1.37 1.07l-5.3 6.32 9.42-2.96zm10.72 7.97l-4.4 4.23.23.23c.67.68 1.36.96 2.11.87.71 0 1.54-.53 2.48-1.26l.27.32-5.66 5.44-.3-.29c.55-.67.94-1.28 1.13-1.86.23-.59.23-1.07 0-1.48-.23-.42-.46-.85-.94-1.38l-3.05 2.93c-.6.57-.94.96-1.03 1.15v.59c0 .23.23.48.53.8l.61.64c.97 1.01 2 1.6 3.05 1.74 1.06.23 2.2 0 3.42-.75l.27.29-3.92 2.84-9.02-9.33.29-.3.35.36c.29.33.59.51.89.6h.69c.23 0 .55-.37 1.1-.89l7.12-6.87c.51-.48.78-.77.87-.91.23-.23.23-.46.23-.71 0-.34-.23-.69-.57-1.05l-.34-.35.29-.29 8.76 9.06-3.21 3.08-.3-.32c.64-.89.99-1.64 1.06-2.26 0-.6 0-1.24-.39-1.9-.23-.39-.69-1.01-1.47-1.81l-1.1-1.12zm28.41 39.01l-4.6 2.44-.23-.36c1.05-.94 1.7-1.97 1.92-3.09.23-1.12 0-2.18-.45-3.16-.44-.85-1.1-1.46-1.93-1.92-.85-.44-1.74-.6-2.68-.5-1.21 0-2.43.48-3.64 1.12-1.17.64-2.18 1.35-3 2.17-.81.82-1.31 1.69-1.47 2.59-.23.91 0 1.87.57 2.88.46.85 1.03 1.51 1.79 2.01.73.51 1.74.89 3.05 1.19l-1.15.62c-1.17-.34-2.15-.82-2.93-1.44s-1.44-1.47-2.02-2.54c-.75-1.42-1.14-2.84-1.17-4.23 0-1.4.35-2.68 1.1-3.85.76-1.16 1.72-2.06 2.94-2.7 1.26-.68 2.63-.98 4.12-.91 1.49 0 2.87.48 4.08 1.26 1.24.8 2.18 1.83 2.84 3.11.5.91.83 2.01.99 3.27 0 .73.22 1.17.25 1.33.23.22.27.34.52.41h.9l.23.36zm3.58 9.19c.98 2.2 1.08 4.26.25 6.2-.82 1.95-2.27 3.34-4.33 4.17-1.79.73-3.55.82-5.32.34-2.33-.66-4-2.22-5.01-4.74-1.01-2.49-.97-4.78.23-6.84.89-1.62 2.26-2.81 4.12-3.54 2.06-.85 4.08-.85 6.03 0 1.97.84 3.32 2.31 4.05 4.39zm-.6.41c-.52-1.28-1.58-1.99-3.14-2.12-1.28 0-2.93.23-4.92 1.05-2.41.94-3.99 2.08-4.79 3.36-.57.92-.62 1.88-.23 2.93.28.71.69 1.24 1.21 1.58.71.41 1.61.59 2.71.55 1.1 0 2.4-.39 3.96-1.03 1.86-.73 3.16-1.47 3.94-2.17.78-.71 1.24-1.42 1.4-2.11.23-.66 0-1.35-.23-2.04zm-10.44 14.65l.41-.23v.41c.23.73.43 1.14.75 1.26.35.23.94 0 1.77-.23l9.62-2.38c.85-.23 1.4-.48 1.6-.73.23-.3.23-.73 0-1.4l-.22-.46h.39l1.9 7.62h-.39v-.29c-.23-.71-.42-1.15-.71-1.33-.3-.23-.9-.23-1.84 0l-9.71 2.42c-.73.23-1.15.32-1.24.46 0 .23 0 .57.23 1.33l.53 2.15c.23.8.36 1.26.53 1.33.22.23.55 0 1.28 0l9.76-2.43c.87-.23 1.42-.46 1.63-.73.22-.28.22-.71 0-1.37l-.23-.46h.39l1.85 7.41h-.39v-.3c-.23-.57-.36-.96-.66-1.14-.28-.23-.9-.23-1.84 0l-9.6 2.4c-.89.23-1.44.46-1.64.73-.23.28-.23.74 0 1.38v.27l-4.68 1.17v-.39c2.7-1.26 3.74-3.23 3.07-5.88l-2.73-10.87zm-96.69-64.43c31.56 38.43 56.14 90.62 35.96 132.02-1.48 3.03-3.36 5.82-5.58 8.38l-93.05-92.88 26.67-28.47-.4-.4h-31.2L93.82 75.07l-2.78-2.8-7.2 7.58 2.78 2.9-19.28 20.57 16.96 15.84 18.37-19.6 89.68 93.86c-12.71 7.78-29.89 10.26-46.28 5.49-16.4-4.78-32.1-19.23-40.58-29.61l-7.58 7.58-3.54-3.24-5.42 4.32c2.28 7.66-16.08 16.26-22.62 22.66-7.7 7.6 1.4 23.32 13.4 9.2 6.62-7.8 10.72-20.89 18.94-20.83l4.29-4.34c16.44 15.59 34.66 30.63 57.29 32.07 17.96 2 32.54-3.6 43.58-11.4l12 12.6c5.6 4.6 15.6-3.6 10-11.2l-11-10.98c7.8-8.56 12.4-18.4 13.8-26.91 8-49.69-28.2-97.97-55.62-124.76z" fill-rule="evenodd" fill="#d40000"/><path style="block-progression:tb;text-indent:0;text-align:start;text-transform:none" fill="#d40000" d="M144.2 81.3v143.81h2.87V81.3h-2.87z" color="#000"/></svg>